<svg width="161" height="64" viewBox="0 0 161 64" fill="none" xmlns="http://www.w3.org/2000/svg">
<g clip-path="url(#clip0_214_297)">
<path d="M1.8944 63.7689L50.4534 62.2823L48.559 0.391113L0 1.87773L1.8944 63.7689Z" fill="#E9204F"/>
<path d="M23.9249 22.7395V41.9071H19.7114V39.5301C18.8891 40.4419 17.9029 41.1912 16.8041 41.7388C15.6261 42.2894 14.3369 42.5606 13.0369 42.5311C11.4018 42.5537 9.79221 42.1248 8.38502 41.2917C6.95643 40.4166 5.78923 39.1736 5.00556 37.6927C4.153 36.0474 3.70517 34.2224 3.69928 32.3693C3.69338 30.5162 4.12958 28.6885 4.97165 27.0378C5.7749 25.511 6.99685 24.2449 8.49414 23.3882C9.91671 22.5496 11.5367 22.1046 13.1879 22.0989C14.201 22.0812 15.2081 22.2585 16.1543 22.6211C16.9512 22.9297 17.6988 23.3528 18.3736 23.8771C18.8624 24.2379 19.2917 24.673 19.646 25.1664H19.7132V22.7389L23.9249 22.7395ZM19.5764 32.2826C19.6108 31.4895 19.4862 30.6975 19.2097 29.9533C18.9333 29.2092 18.5106 28.5279 17.9668 27.9498C17.4483 27.4101 16.823 26.9845 16.1308 26.7001C15.4387 26.4157 14.6948 26.2787 13.9468 26.2979C12.9238 26.2875 11.919 26.568 11.0492 27.1067C10.1795 27.6454 9.48067 28.4202 9.03416 29.3408C8.54171 30.2917 8.28443 31.3468 8.28392 32.4176C8.26321 33.1943 8.39959 33.9671 8.68487 34.6897C8.97015 35.4124 9.39845 36.0699 9.94407 36.6229C10.4629 37.1695 11.0896 37.6024 11.7845 37.8941C12.4793 38.1858 13.2272 38.3299 13.9807 38.3173C14.7442 38.3449 15.5042 38.2018 16.2054 37.8985C16.9066 37.5951 17.5313 37.1391 18.034 36.5637C19.0674 35.381 19.618 33.8527 19.5764 32.2826Z" fill="white"/>
<path d="M46.2761 34.014H31.111C31.4877 35.2023 32.2192 36.2468 33.207 37.007C34.204 37.7011 35.3975 38.0566 36.6118 38.0213C37.5224 38.0547 38.4252 37.8417 39.2249 37.4047C39.9639 36.9392 40.5732 36.2944 40.9961 35.5302H45.9315C45.6634 36.3141 45.3055 37.0644 44.865 37.766C44.2523 38.6663 43.5108 39.4717 42.6642 40.1566C41.8341 40.8455 40.8918 41.3866 39.8784 41.756C38.7474 42.1569 37.5531 42.3493 36.3534 42.3239C34.8497 42.3739 33.3551 42.07 31.9902 41.4366C30.6254 40.8032 29.4283 39.8581 28.4954 38.6774C26.9491 36.7553 26.1273 34.3509 26.1737 31.8843C26.1588 30.0143 26.6259 28.1721 27.53 26.5353C28.3929 24.9274 29.7002 23.602 31.296 22.7173C32.9076 21.8134 34.7271 21.3458 36.5748 21.3608C38.3563 21.3443 40.1111 21.795 41.6643 22.668C43.1974 23.5133 44.452 24.786 45.2756 26.3312C46.1292 27.8791 46.5732 29.6195 46.5652 31.3873C46.5647 32.2708 46.4677 33.1516 46.2761 34.014ZM41.7709 30.2306C41.5776 28.9191 40.9258 27.7187 39.9314 26.8424C39.0554 26.1683 38.003 25.7625 36.9013 25.674C35.7997 25.5855 34.6959 25.818 33.7236 26.3435C32.9409 26.8051 32.2804 27.448 31.7978 28.218C31.4244 28.8439 31.1464 29.522 30.9729 30.2299L41.7709 30.2306Z" fill="white"/>
<path d="M57.4629 39.108L71.3297 5.78516H76.1424L90.0968 39.108H83.2848L79.7463 30.5139H67.8115L64.2514 39.108H57.4629ZM77.5264 24.7104L73.7468 14.4891H73.6587L69.8791 24.7104H77.5264Z" fill="#333333"/>
<path d="M93.7031 39.108V5.78516H99.8789V33.3471H110.032V39.1062L93.7031 39.108Z" fill="#333333"/>
<path d="M113.137 39.1073V9.54443H118.615V39.1073H113.137Z" fill="#333333"/>
<path d="M127.883 39.108V11.5658H121.707V5.78516H140.254V11.5658H134.035V39.1074L127.883 39.108Z" fill="#333333"/>
<path d="M143.088 39.108V5.78516H160.999V11.5658H149.264V19.6987H160.515V25.4578H149.264V33.3502H160.999V39.1093L143.088 39.108Z" fill="#333333"/>
<path d="M118.573 1.2085H113.057V6.98788H118.573V1.2085Z" fill="#E9204F"/>
<path d="M57.0742 60.8177V43.9296H66.3077V45.4644H58.7677V51.5249H66.0623V53.0621H58.7677V59.2897H66.3077V60.8177H57.0742ZM80.3236 60.8177L73.3631 43.9296H75.2341L81.1817 58.7237L87.1615 43.9296H88.9881L81.9832 60.8177H80.3236ZM96.2673 60.8177V43.9296H105.5V45.4644H97.9601V51.5249H105.255V53.0621H97.9601V59.2897H105.5V60.8177H96.2673ZM114.093 60.8177V43.9296H116.374L125.796 57.9437H125.841V43.9296H127.523V60.8177H125.841L115.828 45.9681H115.784V60.8177H114.093ZM138.211 60.8177V45.4644H134.335V43.9272H143.76V45.4644H139.906V60.8177H138.211ZM149.889 56.0945H151.582C151.61 56.743 151.778 57.3777 152.075 57.9548C152.35 58.475 152.777 58.8986 153.3 59.1689C153.84 59.442 154.438 59.5833 155.044 59.5814C155.65 59.5795 156.247 59.4343 156.786 59.1578C157.317 58.893 157.756 58.4736 158.044 57.9548C158.338 57.4392 158.492 56.8553 158.49 56.2616C158.498 55.7983 158.407 55.3387 158.222 54.9137C158.057 54.5276 157.806 54.1846 157.487 53.9111C157.105 53.5928 156.677 53.3337 156.217 53.1423C155.649 52.9148 155.069 52.7178 154.48 52.5522C153.905 52.3888 153.34 52.1915 152.787 51.9615C152.275 51.7301 151.807 51.4096 151.407 51.015C151.058 50.6619 150.785 50.2409 150.605 49.7781C150.426 49.2589 150.339 48.7124 150.349 48.1632C150.347 47.3695 150.554 46.5893 150.95 45.9015C151.347 45.1924 151.944 44.6153 152.665 44.2416C153.408 43.8409 154.239 43.6341 155.082 43.6405C155.692 43.6234 156.3 43.7292 156.868 43.9516C157.436 44.1741 157.954 44.5086 158.39 44.9353C158.829 45.3648 159.177 45.8779 159.414 46.4443C159.652 47.0106 159.773 47.6188 159.771 48.2329H158.079C158.077 47.8241 157.995 47.4196 157.836 47.0429C157.677 46.6662 157.446 46.3247 157.154 46.0384C156.881 45.7574 156.553 45.5353 156.191 45.3858C155.829 45.2364 155.44 45.1628 155.049 45.1696C154.651 45.1596 154.255 45.2304 153.886 45.3778C153.517 45.5253 153.181 45.7462 152.9 46.0273C152.621 46.2995 152.401 46.626 152.253 46.9866C152.106 47.3472 152.034 47.7342 152.042 48.1238C152.02 48.4643 152.077 48.8054 152.208 49.1203C152.339 49.4353 152.542 49.7157 152.799 49.9396C153.596 50.4814 154.482 50.878 155.417 51.1112C156.319 51.34 157.19 51.6766 158.011 52.1138C158.669 52.5409 159.212 53.1222 159.593 53.8069C159.99 54.5181 160.193 55.3209 160.183 56.1352C160.183 57.0113 159.953 57.8719 159.515 58.6306C159.081 59.4065 158.436 60.0438 157.655 60.4687C156.868 60.9047 155.982 61.1311 155.082 61.126C154.456 61.1238 153.834 61.0196 153.241 60.8177C152.674 60.6354 152.143 60.3565 151.67 59.9933C151.255 59.6633 150.901 59.2638 150.622 58.8125C150.369 58.397 150.178 57.9466 150.055 57.4757C149.952 57.0222 149.897 56.5594 149.889 56.0945Z" fill="#333333"/>
</g>
<defs>
<clipPath id="clip0_214_297">
<rect width="161" height="63.3778" fill="white" transform="translate(0 0.390625)"/>
</clipPath>
</defs>
</svg>
