<svg width="260" height="52" viewBox="0 0 260 52" fill="none" xmlns="http://www.w3.org/2000/svg">
<path d="M50.7038 0.754883H0V51.4549H50.7038V0.754883Z" fill="#E9204F"/>
<path d="M28.6645 19.21V41.2377H23.8208V38.506C22.8258 39.5909 21.7119 40.4383 20.4788 41.0442C19.245 41.6508 17.8013 41.9549 16.148 41.9549C14.1716 41.9549 12.3893 41.48 10.8004 40.5305C9.21159 39.5809 7.91689 38.2027 6.91576 36.3943C5.91433 34.5859 5.41406 32.5261 5.41406 30.214C5.41406 27.9796 5.90167 25.958 6.8766 24.1496C7.85182 22.3412 9.20188 20.943 10.9259 19.9552C12.6502 18.9668 14.4487 18.4736 16.3217 18.4736C17.6008 18.4736 18.7368 18.6741 19.7317 19.0737C20.7261 19.4741 21.5759 19.9552 22.2793 20.5173C22.9831 21.079 23.4716 21.5731 23.7422 21.9988H23.8193V19.2091L28.6645 19.21ZM23.6656 30.1769C23.6656 28.1235 23.0484 26.4632 21.8153 25.1975C20.5815 23.932 19.0415 23.2993 17.1942 23.2993C16.0058 23.2993 14.9107 23.5996 13.9101 24.2C12.9087 24.8 12.1208 25.6659 11.5469 26.7962C10.9712 27.9265 10.6844 29.1049 10.6844 30.3323C10.6844 32.2567 11.3199 33.8667 12.5928 35.1648C13.8654 36.4632 15.4118 37.1121 17.233 37.1121C19.157 37.1121 20.7111 36.4411 21.8924 35.0968C23.0746 33.7527 23.6656 32.1136 23.6656 30.1769Z" fill="white"/>
<path d="M33.4778 41.4086V23.4264H31.5488V18.5642H33.4778C33.6382 16.7561 33.9866 15.3496 34.5225 14.345C35.2592 12.9521 36.2103 11.9407 37.3757 11.3112C38.5544 10.6682 39.7402 10.3467 40.9324 10.3467H42.4594V15.7312C41.4012 15.758 40.6777 15.8451 40.2893 15.9926C39.9142 16.1263 39.6127 16.381 39.385 16.7561C39.1574 17.1309 39.0167 17.7339 38.9631 18.5642H42.1579V23.4264H38.9631V41.4086H33.4778Z" fill="white"/>
<path d="M60.0684 45.9957L76.6972 6.04736H82.4684L99.202 45.9957H91.0325L86.7901 35.6928H72.4803L68.2111 45.9957H60.0684ZM84.1279 28.7354L79.5957 16.4819H79.49L74.9576 28.7354H84.1279Z" fill="#333333"/>
<path d="M103.525 45.9957V6.04736H110.931V39.0917H123.107V45.9957H103.525Z" fill="#333333"/>
<path d="M144.513 45.9972V12.9788H137.107V6.04883H159.348V12.9788H151.891V45.9966L144.513 45.9972Z" fill="#333333"/>
<path d="M162.748 45.9957V6.04736H184.227V12.9773H170.154V22.7273H183.647V29.6314H170.154V39.0917H184.227V45.9957H162.748Z" fill="#333333"/>
<path d="M126.705 46.0269V13.8877H133.499V46.0269H126.705Z" fill="#333333"/>
<path d="M133.532 6.04883H126.705V12.9788H133.532V6.04883Z" fill="#E9204F"/>
<path d="M227.111 46.0269V13.8877H233.905V46.0269H227.111Z" fill="#333333"/>
<path d="M233.939 6.04883H227.111V12.9788H233.939V6.04883Z" fill="#E9204F"/>
<path d="M200.105 46.062V6.04736H220.484V12.9891H207.523V22.7553H219.903V29.6708H207.523V46.062H200.105Z" fill="#333333"/>
<path d="M245.138 46.062V12.9891H237.721V6.04736H260V12.9891H252.53V46.062H245.138Z" fill="#333333"/>
</svg>
