<svg width="232" height="80" viewBox="0 0 232 80" fill="none" xmlns="http://www.w3.org/2000/svg">
<path d="M83.0135 70.3008H84.082V62.9732H83.0135V60.8893H87.742L91.1292 69.1793L94.2739 60.8893H99.0706V62.9732H98.0022V70.3008H99.0555V72.3771H94.7589V70.3008H95.547V63.693L92.1067 72.2407H89.9774L86.4765 63.9204V70.3008H87.3328V72.3771H83.0135V70.3008ZM105.446 60.8893H110.364V62.9656H109.152V70.3008H110.364V72.3771H105.446V70.3008H106.636V62.9656H105.446V60.8893ZM116.24 60.8893H121.158V62.9732H119.946V70.3008H122.446C122.512 70.3008 122.575 70.2831 122.636 70.2477C122.701 70.2073 122.757 70.1568 122.802 70.0962C122.853 70.0356 122.893 69.9699 122.924 69.8992C122.954 69.8284 122.969 69.7602 122.969 69.6946V68.1563H125.424V72.3771H116.24V70.3008H117.43V62.9732H116.24V60.8893ZM131.095 60.8893H140.234V64.807H137.764V63.1778H134.816V65.4435H137.097V67.641H134.816V70.3008H137.764V68.2624H140.234V72.3771H131.095V70.3008H132.3V63.1778H131.095V60.8893ZM153.971 60.8893H160.048C160.639 60.8893 161.167 60.9777 161.632 61.1545C162.097 61.3313 162.488 61.5688 162.807 61.8668C163.125 62.1598 163.367 62.5033 163.534 62.8974C163.706 63.2864 163.792 63.693 163.792 64.1174C163.792 64.5064 163.749 64.8474 163.663 65.1404C163.582 65.4334 163.461 65.6936 163.299 65.9209C163.142 66.1482 162.948 66.3503 162.716 66.5271C162.483 66.6989 162.218 66.8555 161.92 66.9969C162.178 67.1283 162.405 67.3303 162.602 67.6031C162.799 67.8709 162.948 68.2195 163.049 68.6489L163.435 70.1417H164.383L164.398 72.3771H161.064L160.609 69.6491C160.564 69.3258 160.493 69.0479 160.397 68.8156C160.306 68.5781 160.182 68.3862 160.026 68.2397C159.869 68.0881 159.677 67.977 159.45 67.9062C159.227 67.8355 158.962 67.8002 158.654 67.8002H157.676V70.3008H158.73V72.3771H153.971V70.3008H155.161V62.9732H153.971V60.8893ZM157.676 62.9732V65.7542H159.184C159.472 65.7542 159.73 65.7289 159.957 65.6784C160.19 65.6228 160.387 65.5395 160.548 65.4283C160.715 65.3121 160.841 65.1682 160.927 64.9964C161.018 64.8246 161.064 64.62 161.064 64.3826C161.064 63.9381 160.905 63.592 160.586 63.3445C160.268 63.0969 159.801 62.9732 159.184 62.9732H157.676ZM170.221 60.8893H179.359V64.807H176.889V63.1778H173.941V65.4435H176.222V67.641H173.941V70.3008H176.889V68.2624H179.359V72.3771H170.221V70.3008H171.425V63.1778H170.221V60.8893ZM185.333 60.8893H190.251V62.9732H189.039V70.3008H191.54C191.605 70.3008 191.668 70.2831 191.729 70.2477C191.795 70.2073 191.85 70.1568 191.896 70.0962C191.946 70.0356 191.987 69.9699 192.017 69.8992C192.047 69.8284 192.062 69.7602 192.062 69.6946V68.1563H194.518V72.3771H185.333V70.3008H186.523V62.9732H185.333V60.8893ZM206.099 70.3008H207.244L206.728 68.6489H203.197L202.682 70.3008H203.894V72.3771H199.537V70.3008H200.393L203.523 60.8893H206.562L209.623 70.3008H210.457V72.3771H206.099V70.3008ZM203.796 66.709H206.115L204.948 62.9732L203.796 66.709ZM214.514 60.8893H219.432V62.9732H218.469L220.007 65.6102L221.637 62.9732H220.538V60.8893H225.456V62.9732H224.607L221.19 67.6107V70.3008H222.584V72.3771H217.461V70.3008H218.734V67.5804L215.521 62.9732H214.514V60.8893Z" fill="url(#paint0_linear_230_68)"/>
<path d="M99.0035 14.3109L109.748 47.6137H110.794L100.05 14.3109H99.0035Z" fill="#333333"/>
<path d="M85.8817 41.9997L84.1701 47.6137H85.216L86.9277 41.9997H85.8817Z" fill="#333333"/>
<path d="M87.4031 41.9997L85.6439 47.6137H86.69L88.449 41.9997H87.4031Z" fill="#333333"/>
<path d="M102.427 40.5249H74.691L74.374 41.524H102.759L102.427 40.5249Z" fill="#333333"/>
<path d="M102.284 40.0967L101.951 39.0977H75.0079L74.691 40.0967H102.284Z" fill="#333333"/>
<path d="M101.476 37.6228H75.3249L75.0079 38.6219H101.809L101.476 37.6228Z" fill="#333333"/>
<path d="M88.9244 41.9997L87.1654 47.6137H88.2113L89.9703 41.9997H88.9244Z" fill="#333333"/>
<path d="M101.333 37.1946L101 36.1956H75.6418L75.3249 37.1946H101.333Z" fill="#333333"/>
<path d="M100.525 34.7208H75.9588L75.6418 35.7198H100.858L100.525 34.7208Z" fill="#333333"/>
<path d="M94.2017 14.977L88.2588 34.2926H89.3049L94.7246 16.6421L94.2017 14.977Z" fill="#333333"/>
<path d="M90.4458 41.9997L88.6867 47.6137H89.7326L91.4918 41.9997H90.4458Z" fill="#333333"/>
<path d="M94.9624 17.4033L89.7803 34.2926H90.8262L95.4855 19.0209L94.9624 17.4033Z" fill="#333333"/>
<path d="M91.9672 41.9997L90.208 47.6137H91.2541L93.0131 41.9997H91.9672Z" fill="#333333"/>
<path d="M95.7232 19.7821L91.3016 34.2926H92.3475L96.2936 21.4472L95.7232 19.7821Z" fill="#333333"/>
<path d="M96.5313 22.2084L92.8229 34.2926H93.869L97.0543 23.8735L96.5313 22.2084Z" fill="#333333"/>
<path d="M97.292 24.6347L94.3444 34.2926H95.3428L97.8149 26.2523L97.292 24.6347Z" fill="#333333"/>
<path d="M95.4855 14.3109H94.4394L105.184 47.6137H106.23L95.4855 14.3109Z" fill="#333333"/>
<path d="M97.0068 14.3109H95.9609L106.706 47.6137H107.751L97.0068 14.3109Z" fill="#333333"/>
<path d="M98.5281 14.3109H97.4822L108.227 47.6137H109.273L98.5281 14.3109Z" fill="#333333"/>
<path d="M101.571 14.3109H100.525L111.27 47.6137H112.316L101.571 14.3109Z" fill="#333333"/>
<path d="M88.1895 34.3456H95.3977H108.049L101.568 14.291H94.4147L88.1895 34.3456Z" fill="#333333"/>
<path d="M95.3438 34.3456L97.9909 25.6024L100.914 34.3456H95.3438Z" fill="#BBB3B3"/>
<path d="M105.179 47.616L100.872 34.3195L107.939 33.988L112.319 47.616H105.179Z" fill="#333333"/>
<path d="M135.696 35.0474C135.553 34.762 135.363 34.4765 135.173 34.1911C135.648 33.858 136.076 33.4774 136.504 33.0968C138.453 31.0987 139.547 28.482 139.547 25.7227C139.547 19.966 134.888 15.3036 129.135 15.3036H124.809V14.3046H129.135C135.458 14.3046 140.545 19.4427 140.545 25.7227C140.545 28.7675 139.357 31.622 137.217 33.7629C136.742 34.2386 136.219 34.6668 135.696 35.0474ZM117.582 57.2965V14.3046H118.58V57.2965H117.582ZM119.008 57.2965V14.3046H120.007V57.2965H119.008ZM120.482 57.2965V14.3046H121.481V57.2965H120.482ZM121.908 57.2965V14.3046H122.907V57.2965H121.908ZM123.382 57.2965V14.3046H124.381V57.2965H123.382ZM124.809 37.1407V36.1417H127.043C128.422 36.1417 129.706 36.9029 130.276 38.1874L138.853 57.3512H137.712L129.373 38.6156C128.945 37.7117 128.042 37.1407 127.043 37.1407H124.809ZM124.809 35.6659V34.6668H127.043C128.992 34.6668 130.751 35.8086 131.607 37.5689L140.47 57.3512H139.329L130.704 37.9971C130.038 36.5698 128.612 35.6659 127.043 35.6659H124.809ZM124.809 34.2386V33.2396H127.043C129.515 33.2396 131.845 34.6668 132.891 36.9029L142.038 57.3512H140.945L131.988 37.331C131.084 35.428 129.135 34.2386 127.043 34.2386H124.809ZM124.809 32.7638V31.7647H127.043C130.086 31.7647 132.891 33.525 134.222 36.2844L143.655 57.3512H142.561L133.319 36.7126C132.178 34.3338 129.706 32.7638 127.043 32.7638H124.809ZM124.809 31.3366V30.3375H127.043C130.656 30.3375 133.984 32.3832 135.506 35.6659L145.271 57.3512H144.178L134.602 36.0941C133.224 33.192 130.276 31.3366 127.043 31.3366H124.809ZM124.809 21.1078V20.1088H129.135C132.225 20.1088 134.745 22.6303 134.745 25.7227C134.745 28.0063 133.319 30.0044 131.37 30.8608C130.847 30.6229 130.324 30.4326 129.801 30.2423C132.035 29.9569 133.747 28.0063 133.747 25.7227C133.747 23.2012 131.702 21.1078 129.135 21.1078H124.809ZM124.809 19.6806V18.6815H129.135C133.034 18.6815 136.171 21.8215 136.171 25.7227C136.171 28.2442 134.84 30.4802 132.796 31.7172C132.653 31.622 132.463 31.4793 132.273 31.3841C132.13 31.289 131.988 31.1938 131.845 31.1462C133.842 30.1472 135.173 28.1014 135.173 25.7227C135.173 22.3924 132.463 19.6806 129.135 19.6806H124.809ZM124.809 18.2057V17.2067H129.135C133.842 17.2067 137.645 21.0603 137.645 25.7227C137.645 28.6248 136.171 31.1938 133.984 32.7162C133.699 32.4784 133.461 32.2405 133.176 32.0026C135.268 30.6705 136.647 28.3869 136.647 25.7227C136.647 21.5836 133.271 18.2057 129.135 18.2057H124.809ZM124.809 16.7785V15.7794H129.135C134.65 15.7794 139.072 20.2515 139.072 25.7227C139.072 29.0529 137.455 32.0026 134.935 33.8105C134.745 33.525 134.507 33.2871 134.27 33.0493C136.599 31.4317 138.073 28.7675 138.073 25.7227C138.073 20.7748 134.079 16.7785 129.135 16.7785H124.809Z" fill="#333333"/>
<path fill-rule="evenodd" clip-rule="evenodd" d="M118.022 14.2911H124.903V14.2912H129.396C135.743 14.2912 140.848 19.3891 140.848 25.6196C140.848 28.6403 139.655 31.4734 137.508 33.5974C137.029 34.0704 136.505 34.4943 135.984 34.8692L135.749 35.0386C135.746 35.0322 135.743 35.0258 135.74 35.0194L135.739 35.0197L135.749 35.0386L135.625 35.088C135.493 35.1627 135.355 35.2281 135.212 35.2834L140.466 47.5697H133.859L129.1 37.1461H124.381H123.382H122.907H121.908H121.626C121.578 37.1461 121.529 37.145 121.481 37.143V37.1461H120.482H120.007H119.008H118.58H117.582V14.2912H118.022V14.2911ZM140.021 29.1508L140.015 29.1593C140.004 29.1948 139.993 29.2303 139.981 29.2657C139.995 29.2275 140.008 29.1892 140.021 29.1508ZM129.655 30.2608H129.888L129.888 30.2608C132.164 30.2549 133.709 28.0207 133.695 25.6418C133.68 23.2767 132.144 21.0804 129.879 21.0805C127.943 21.0805 124.957 21.0805 124.957 21.0805V30.2608L125.024 30.2608H128.233C128.232 30.2608 128.232 30.2608 128.232 30.2608H129.655L129.655 30.2608Z" fill="#333333"/>
<path d="M154.772 47.7999C153.441 47.7999 152.015 47.7048 150.493 47.4669L150.588 46.5154C152.11 46.7057 153.488 46.8009 154.772 46.8009C160.144 46.8009 164.043 42.8997 164.043 37.5237V4.56726H165.041V37.5237C165.041 43.4706 160.715 47.7999 154.772 47.7999ZM150.683 46.0397L150.778 45.0406C152.205 45.2309 153.583 45.326 154.772 45.326C159.384 45.326 162.569 42.1385 162.569 37.5237V4.56726H163.568V37.5237C163.568 42.6618 159.907 46.3251 154.772 46.3251C153.536 46.3251 152.157 46.23 150.683 46.0397ZM150.874 44.6124L150.969 43.6133C152.347 43.8036 153.631 43.8988 154.772 43.8988C158.575 43.8988 161.143 41.3297 161.143 37.5237V4.56726H162.141V37.5237C162.141 41.853 159.098 44.8978 154.772 44.8978C153.583 44.8978 152.252 44.8027 150.874 44.6124ZM151.064 43.1851L151.159 42.186C152.49 42.3763 153.679 42.4239 154.772 42.4239C157.767 42.4239 159.669 40.5209 159.669 37.5237V4.56726H160.667V37.5237C160.667 41.0442 158.29 43.423 154.772 43.423C153.631 43.423 152.395 43.3279 151.064 43.1851ZM151.254 41.7103L151.349 40.7588C152.633 40.9015 153.774 40.9967 154.772 40.9967C156.959 40.9967 158.243 39.7121 158.243 37.5237V4.56726H159.241V37.5237C159.241 40.283 157.53 41.9957 154.772 41.9957C153.726 41.9957 152.538 41.9006 151.254 41.7103Z" fill="#333333"/>
<path fill-rule="evenodd" clip-rule="evenodd" d="M165.068 14.7311H158.188V38.884H158.358L157.806 40.3048L155.894 41.3431L151.362 40.7966L150.488 47.4086L157.096 47.2447L161.956 44.4032L164.249 40.3048V38.884H165.068V14.7311Z" fill="#333333"/>
<path d="M182.556 47.8546C175.425 47.8546 170.29 42.3834 170.29 35.2471L170.29 11.835H171.288L171.288 35.2471C171.288 42.0028 176.09 46.8555 182.556 46.8555C189.022 46.8555 193.871 42.0028 193.871 35.2471L193.871 4.56726H194.87L194.87 35.2471C194.87 42.5261 189.593 47.8546 182.556 47.8546ZM171.716 35.2471L171.716 11.835H172.715L172.715 35.2471C172.715 41.0513 176.803 45.4282 182.556 45.4282C188.356 45.4282 192.445 41.0513 192.445 35.2471L192.445 4.56726H193.444L193.444 35.2471C193.444 41.7174 188.832 46.4273 182.556 46.4273C176.328 46.4273 171.716 41.7174 171.716 35.2471ZM173.19 35.2471L173.19 11.835H174.189L174.189 35.2471C174.189 40.4804 177.802 43.9534 182.556 43.9534C187.358 43.9534 190.971 40.4804 190.971 35.2471L190.971 4.56726H191.97L191.97 35.2471C191.97 40.9086 187.976 44.9525 182.556 44.9525C177.136 44.9525 173.19 40.9086 173.19 35.2471ZM174.616 35.2471L174.616 11.835H175.615L175.615 35.2471C175.615 39.6716 178.61 42.5261 182.556 42.5261C186.55 42.5261 189.545 39.6716 189.545 35.2471L189.545 4.56726H190.543L190.543 35.2471C190.543 40.2425 187.073 43.5252 182.556 43.5252C178.04 43.5252 174.616 40.2425 174.616 35.2471ZM176.09 35.2471L176.09 11.835H177.089L177.089 35.2471C177.089 38.8153 179.323 41.0513 182.556 41.0513C185.837 41.0513 188.071 38.8153 188.071 35.2471L188.071 4.56726H189.07L189.07 35.2471C189.07 39.3862 186.312 42.0504 182.556 42.0504C178.848 42.0504 176.09 39.3862 176.09 35.2471Z" fill="#333333"/>
<path d="M176.73 35.8786L177.549 39.2665L179.679 40.9059L182.518 41.5616L186.341 40.9059L187.87 38.2283L188.58 35.8786V25.3868H194.423V35.8786L193.604 39.4851L192.348 42.4906L189.508 45.1135C188.452 45.6418 186.341 46.7092 186.341 46.7529C186.341 46.7966 183.902 47.0261 182.682 47.1354L180.716 47.2993L177.276 46.2611C176.712 46.0243 175.572 45.507 175.529 45.3321C175.485 45.1572 173.399 42.7456 172.361 41.5616L170.778 36.7529L170.341 35.8786L170.778 25.3868H176.73V35.8786Z" fill="#333333"/>
<path d="M221.974 47.6192L205.001 14.3164H206.142L223.068 47.6192H221.974ZM200.104 57.4111V15.2203L201.103 17.1709V57.4111H200.104ZM200.152 14.3164H201.246L218.218 47.6192H217.077L200.152 14.3164ZM201.531 57.4111V18.0748L202.529 20.0254V57.4111H201.531ZM201.769 14.3164H202.91L219.835 47.6192H218.694L201.769 14.3164ZM203.005 57.4111V20.9294L204.003 22.88V57.4111H203.005ZM203.385 14.3164H204.526L221.451 47.6192H220.358L203.385 14.3164ZM204.431 57.4111V23.7839L205.429 25.7345V57.4111H204.431ZM205.905 57.4111V26.6384L206.903 28.589V57.4111H205.905ZM206.665 14.3164H207.759L224.732 47.6192H223.591L206.665 14.3164ZM217.886 33.2514V4.78827H218.884V35.202L217.886 33.2514ZM219.359 36.1059V4.78827H220.358V38.0565L219.359 36.1059ZM220.786 38.9604V4.78827H221.784V40.911L220.786 38.9604ZM222.26 41.815V4.78827H223.258V43.7655L222.26 41.815ZM223.686 44.6695V4.78827H224.684V46.6201L223.686 44.6695Z" fill="#333333"/>
<path d="M217.49 47.6296L206.35 25.3892H212.957L217.872 34.4056V25.3892H224.643V47.6296H217.49Z" fill="#333333"/>
<path d="M200.124 25.3892H207.005L206.349 47.575H200.124V25.3892Z" fill="#333333"/>
<path fill-rule="evenodd" clip-rule="evenodd" d="M69.2733 0.18029C68.0177 0.57324 66.8689 1.52296 66.3016 2.63677C65.9816 3.2649 65.7089 4.59171 65.769 5.22696L65.8135 5.69678L66.7675 5.67111C67.8279 5.64249 71.8551 4.99071 74.1323 4.47909C76.4256 3.96385 78.1062 3.36515 77.3458 3.33437C77.2018 3.3286 77.1597 3.29325 77.2519 3.25603C77.4957 3.15739 77.4573 2.94183 77.1959 2.94183C76.892 2.94183 75.329 2.07328 74.669 1.53774C73.8656 0.885693 73.1349 0.458339 72.3977 0.208915C71.6103 -0.0574413 70.0776 -0.0714184 69.2733 0.18029ZM77.1513 3.88254C76.5361 4.28087 71.5489 5.29751 67.5578 5.83829C66.6722 5.9583 65.8822 6.1107 65.8021 6.17708C65.722 6.24347 65.5788 6.53334 65.484 6.82134C65.389 7.10933 65.0862 7.60684 64.8108 7.92695C64.3164 8.50213 64.3043 8.50723 63.8057 8.3539C63.374 8.22126 63.2014 8.23886 62.6117 8.47565C62.0729 8.69202 61.4539 8.77521 59.7757 8.85678C58.5949 8.91416 57.1459 9.06279 56.5555 9.1871C55.8077 9.34474 55.1732 9.38936 54.4642 9.33439C53.265 9.24139 53.0411 9.38895 52.8532 10.3961C52.7609 10.8907 52.8085 11.254 53.1042 12.3159C53.3475 13.1888 53.4648 13.9231 53.4561 14.5172L53.4429 15.4087L54.5038 15.5015C56.2204 15.6514 57.3564 16.1144 58.4718 17.1189C59.1993 17.774 60.0419 19.239 59.953 19.6942C59.9238 19.8442 59.7836 19.6098 59.5973 19.0998C59.1832 17.9648 58.2333 16.9968 56.8751 16.3251C56.3129 16.0472 55.7149 15.8401 55.5461 15.865C55.0613 15.9365 54.8682 16.7261 54.746 19.1356C54.6617 20.7986 54.5713 21.4685 54.3467 22.0921C54.1872 22.5356 53.6736 24.3049 53.2054 26.0239C52.7374 27.7428 52.2186 29.3757 52.0525 29.6524C50.8924 31.5855 50.8221 31.7489 51.071 31.9312C51.2007 32.0263 51.3606 32.104 51.4265 32.104C51.6566 32.104 53.4781 32.9489 54.4087 33.4875C55.4913 34.1139 56.1049 34.565 57.2802 35.5984C58.839 36.969 59.0683 36.9907 59.7551 35.8333C60.0294 35.3714 60.4123 34.4793 60.6063 33.851C60.8809 32.9614 61.0852 32.5715 61.53 32.0883C61.8441 31.7469 62.2653 31.1422 62.4659 30.7444C62.6665 30.3465 62.9771 29.8456 63.1562 29.6314C63.9141 28.7246 64.673 26.7023 64.673 25.5898C64.673 25.1832 64.7794 24.988 65.268 24.4987C66.3361 23.4289 67.0684 21.7569 67.3558 19.7321L67.4788 18.8668L67.4158 19.9586C67.3498 21.1064 66.9837 22.4437 66.5189 23.2344C66.3669 23.4931 65.9508 24.0079 65.5944 24.3784C64.9816 25.0154 64.9352 25.1158 64.7419 26.227C64.6293 26.8731 64.4185 27.7149 64.2733 28.0976C63.9822 28.8651 64.0043 29.0772 64.5024 30.2821C64.9317 31.3211 65.7616 32.537 66.3459 32.9834L66.8098 33.3377L67.9889 32.8021C68.6373 32.5076 69.3913 32.2278 69.6642 32.1805C71.4931 31.8633 74.1358 30.2083 76.6823 27.7854C77.5689 26.9419 77.7628 26.822 78.5193 26.6496C80.2139 26.2634 82.6524 25.1627 82.6524 24.784C82.6524 24.6889 82.7482 24.5315 82.8653 24.4342C83.0114 24.3127 83.06 24.1074 83.0203 23.7795C82.987 23.5047 83.0532 23.1086 83.1759 22.8474C83.3819 22.4097 83.3787 22.3859 83.0881 22.1926C82.9222 22.0823 82.7866 21.9028 82.7866 21.7936C82.7866 21.6845 82.6991 21.4046 82.5923 21.1717C82.4854 20.9388 82.3798 20.5668 82.3575 20.3451C82.3223 19.9959 82.2569 19.9361 81.8683 19.8989C81.4813 19.8617 81.3522 19.9352 80.9291 20.4334C80.6592 20.751 80.3192 21.1318 80.1734 21.2795C80.0062 21.4489 79.8506 21.8964 79.7518 22.492C79.6013 23.4001 79.5939 23.413 79.5599 22.8312C79.5037 21.8681 79.5644 21.5766 79.8957 21.2186C80.5571 20.5039 80.8135 19.6488 80.4554 19.3513C80.3111 19.2313 80.2233 19.2713 80.0497 19.5366C79.9279 19.7228 79.5731 20.0413 79.2613 20.2445C78.9495 20.4476 78.6737 20.6605 78.6486 20.7174C78.6015 20.8242 77.8983 21.2186 77.7553 21.2186C77.7112 21.2186 77.8592 20.9506 78.084 20.6232C78.3089 20.2957 78.493 19.9686 78.493 19.8962C78.493 19.7292 77.5528 18.5279 76.7558 17.6767C75.0636 15.8691 71.8027 14.0615 69.4299 13.6156C68.826 13.5022 68.9859 13.3174 69.777 13.2144C70.3251 13.1432 70.4357 13.1826 71.0933 13.6835C72.1209 14.4664 73.0062 14.4108 73.1946 13.5515C73.2523 13.2886 73.4021 13.0946 73.6081 13.0162C73.9147 12.8994 73.9893 12.7587 73.9419 12.3863C73.9304 12.2962 74.0703 12.1848 74.2527 12.1389C74.4584 12.0872 74.6359 11.9071 74.7203 11.6647C74.8405 11.3193 74.9199 11.2739 75.4042 11.2739C76.091 11.2739 76.1513 11.1262 75.8845 10.0952C75.5846 8.93566 75.6116 8.52161 76.0062 8.22771C76.4098 7.92735 76.7487 6.72686 76.7487 5.598C76.7487 4.84019 76.7607 4.81412 77.1444 4.73725C77.5302 4.65998 78.1435 4.15132 77.8508 4.15132C77.7699 4.15132 77.6665 4.21179 77.6209 4.28571C77.4613 4.54427 77.2715 4.42856 77.4149 4.16019C77.6465 3.72679 77.5495 3.62465 77.1513 3.88254ZM20.4051 7.99293C20.5023 8.11025 21.0481 8.44098 21.6179 8.72803C22.1878 9.01495 23.9119 10.0171 25.4494 10.955C26.9868 11.8927 28.6118 12.8329 29.0603 13.044C30.1533 13.5585 32.1335 14.0478 33.9047 14.2413C35.4207 14.4069 38.5292 14.3378 40.1191 14.103C40.8883 13.9895 41.0437 13.9141 41.4352 13.464C41.6794 13.1834 41.9209 12.8933 41.9719 12.8192C42.0229 12.7453 42.2368 12.4541 42.4472 12.172C42.6576 11.89 42.8015 11.6312 42.7672 11.5968C42.7328 11.5624 41.8869 11.7738 40.8874 12.0665C37.5843 13.034 36.4409 13.2225 33.88 13.2224C32.1031 13.2222 31.4062 13.1692 30.7269 12.9818C29.4537 12.6307 28.0972 11.9114 27.1042 11.0607C25.8502 9.98658 24.851 9.44069 23.0211 8.83017C22.1348 8.53438 21.1838 8.17718 20.9079 8.03607C20.2969 7.72402 20.1734 7.7134 20.4051 7.99293ZM9.86279 8.38104C8.84803 8.56892 7.78309 8.95139 7.78309 9.12811C7.78309 9.18845 8.13033 9.10701 8.55459 8.94736C9.21057 8.70048 9.5974 8.65802 11.1375 8.66407C12.7445 8.67025 13.0667 8.71191 13.9944 9.03283C16.1907 9.79239 17.3646 10.5767 20.2841 13.2349C23.7827 16.4204 26.3324 18.2537 29.1168 19.5859C30.7172 20.3518 32.8658 21.0843 33.511 21.0842C33.6771 21.0842 33.8129 21.1385 33.8129 21.2047C33.8129 21.4722 31.4618 21.6579 29.0528 21.5806C25.5621 21.4685 22.9482 20.8361 20.845 19.5948C19.5911 18.8547 18.1134 17.2926 17.5094 16.0684C17.2257 15.4935 16.9436 14.9921 16.8823 14.9542C16.5951 14.7766 16.6598 15.3687 17.0327 16.3305C17.997 18.8184 20.2663 20.8076 23.6157 22.1014C26.534 23.2286 33.5258 24.9814 35.1039 24.9814C35.5373 24.9814 35.5415 24.9749 37.1473 21.7225C38.0322 19.9302 38.7762 18.3909 38.8003 18.3021C38.8336 18.1806 38.0123 18.1247 35.4901 18.0766C31.9962 18.0101 30.872 17.8745 29.251 17.3238C27.798 16.8301 27.123 16.4363 24.4775 14.538C17.8004 9.7471 16.2589 8.89615 13.33 8.38454C11.9645 8.146 11.1369 8.14519 9.86279 8.38104ZM2.62503 9.9636C2.65481 10.4995 2.70781 11.7846 2.74283 12.8193C2.80978 14.7962 3.1004 16.2999 3.60436 17.2769C4.12402 18.2844 5.24693 19.1594 7.716 20.4808C8.38017 20.8362 9.76887 21.6414 10.802 22.2702C16.7598 25.8957 28.9357 32.9512 32.4712 34.8264C36.4291 36.9258 40.5426 37.7697 44.9848 37.3935L46 37.3076L46.0836 36.8615C46.2047 36.214 47.139 34.4199 47.724 33.7112C48.3864 32.9083 49.5203 31.9598 50.1627 31.6713C50.5615 31.4921 50.7754 31.2556 51.1135 30.6202C51.3534 30.1694 51.5256 29.7763 51.496 29.7466C51.4664 29.717 50.8719 29.7635 50.1748 29.8499C48.4037 30.0698 39.9533 30.0682 37.9052 29.8476C29.289 28.9201 21.7386 26.3537 12.0767 21.0682C7.71399 18.6816 5.41599 16.6751 4.16092 14.1562C3.61483 13.0604 3.01923 11.0132 2.86573 9.7049C2.74122 8.64485 2.5625 8.83702 2.62503 9.9636ZM50.8531 9.55022C49.9133 9.7604 49.4048 9.79091 47.9639 9.72398C45.7876 9.62279 45.1107 9.76336 44.6498 10.412C44.4716 10.663 43.754 11.4624 43.0554 12.1885C41.6433 13.6558 41.2059 14.3906 39.9251 17.4456C38.582 20.6492 37.5757 22.5617 36.8463 23.2961C36.2169 23.9301 35.2888 25.6113 35.2888 26.1176C35.2888 26.4132 35.9066 27.3649 36.2297 27.5669C36.3763 27.6587 36.4964 27.835 36.4964 27.9587C36.4964 28.0947 36.8284 28.3706 37.335 28.656C37.7963 28.9159 38.2495 29.2538 38.3424 29.4068C38.4541 29.5909 38.6504 29.685 38.9227 29.685C39.2754 29.685 39.366 29.6086 39.5588 29.1488C39.8321 28.4972 40.0459 28.4441 39.9311 29.0564C39.8853 29.3017 39.8828 29.538 39.9259 29.5811C39.969 29.6243 40.2616 29.5336 40.5761 29.3796C41.0475 29.1488 41.1778 28.9988 41.3168 28.5275C41.4095 28.2129 41.6038 27.7342 41.7484 27.4637L42.0117 26.972L41.54 25.9431C40.695 24.0997 40.6907 23.9936 41.4017 22.5C42.3566 20.4941 43.4146 19.0329 44.9318 17.624C45.7342 16.8788 46.5257 15.9908 46.9081 15.4066C47.2589 14.8705 47.5633 14.409 47.5844 14.3809C47.6056 14.353 48.042 14.4856 48.5543 14.6758C49.6502 15.0826 51.4198 15.4399 52.3391 15.4399C52.8575 15.4399 53.0204 15.3839 53.137 15.1655C53.3674 14.7344 53.3132 13.7055 53.0099 12.7521C52.625 11.5418 52.5302 10.6079 52.7308 9.99934C53.0008 9.17998 52.7628 9.12313 50.8531 9.55022ZM68.8049 14.264C68.9481 14.652 69.1422 15.2764 69.2364 15.6514C69.4064 16.3281 69.4129 16.3344 70.0929 16.4789C71.6685 16.8136 73.2438 17.6206 74.7409 18.8597C75.597 19.5682 75.7812 19.8716 75.16 19.5498C74.2215 19.0637 69.6365 17.9493 69.4292 18.157C69.3972 18.1891 69.3097 18.5394 69.2347 18.9356C69.0913 19.6933 69.1707 19.8681 69.6603 19.8727C70.0066 19.8758 72.1606 20.6648 73.0589 21.1174C74.1283 21.6563 74.9262 22.2112 75.7532 22.9908L76.4349 23.6334L76.9418 22.6198C77.2206 22.0623 77.4684 21.6259 77.4926 21.6501C77.5167 21.6743 77.3669 22.1756 77.1596 22.764C76.7407 23.9524 76.7281 23.964 74.5268 25.1829C73.1385 25.9516 72.5756 26.1451 71.216 26.3212C69.2456 26.5762 69.0977 26.6141 68.6716 26.9732L68.2515 27.3272L68.6038 26.7927C69.5127 25.4138 69.6309 23.694 68.9528 21.7158L68.5364 20.5014L68.777 19.6169C69.2241 17.9727 69.0432 15.8666 68.3329 14.447C68.069 13.9197 68.0395 13.7678 68.1834 13.6765C68.4845 13.4854 68.5356 13.5336 68.8049 14.264ZM1.27536 18.6383C1.38646 19.5214 2.1098 21.6986 2.6909 22.8984C3.24223 24.0371 3.5935 24.5135 5.28181 26.4137C6.12523 27.3631 6.49206 27.9233 7.11463 29.2139C7.54278 30.1012 8.43115 31.9461 9.08874 33.3135C11.4705 38.2658 13.473 41.4096 16.5792 45.0724C20.3743 49.5478 25.1772 53.3073 30.2643 55.7846L31.6475 56.4582L32.4802 55.8165C33.1769 55.2796 33.5671 55.1018 34.871 54.7275C36.5426 54.2478 37.9717 53.7578 38.1484 53.6036C38.2083 53.5514 37.6649 53.3761 36.9408 53.2141C33.7708 52.5048 31.6109 51.7607 28.9156 50.4496C22.9798 47.5624 16.6115 42.4435 12.8847 37.564C11.3723 35.5838 12.1911 36.2769 13.8965 38.4202C14.5139 39.1963 15.3747 40.1173 15.8093 40.4667C16.9822 41.41 18.8254 42.456 20.9703 43.3959C22.0194 43.8557 23.6838 44.6857 24.6691 45.2403C27.1964 46.6629 29.0508 47.3839 31.9997 48.0901C33.2937 48.4002 39.9136 49.7088 40.1871 49.7088C40.3956 49.7088 40.5737 49.4848 40.9083 48.8017C41.2941 48.014 42.5168 45.9067 42.9651 45.2568C43.0837 45.0849 43.0565 44.962 42.8384 44.6845C42.5628 44.3334 42.5453 44.3305 40.3259 44.265C33.4335 44.0618 27.1175 42.6009 21.9385 40.0118C17.487 37.7862 14.4379 35.3489 11.3214 31.5247C9.27296 29.0109 8.4227 28.0592 5.82656 25.3744C3.13033 22.5861 2.29818 21.4259 1.8028 19.765C1.34594 18.2333 1.17983 17.8784 1.27536 18.6383ZM13.6868 27.2543C13.6868 27.8014 14.7391 31.0226 15.2946 32.1756C16.9374 35.5861 20.5412 38.0513 26.534 39.8638C27.5117 40.1596 28.3118 40.3488 28.3118 40.2845C28.3118 40.22 28.2364 40.1663 28.1441 40.1651C27.9138 40.1622 24.1553 38.3209 22.9337 37.6124C21.3397 36.6882 19.5908 35.4855 18.6615 34.6742C17.1876 33.3875 16.4565 32.364 15.1478 29.755C13.9377 27.3428 13.6868 26.9133 13.6868 27.2543ZM4.29456 30.6767C4.29456 30.7048 4.44631 31.0597 4.63187 31.4655C5.471 33.3015 5.65817 34.26 5.76658 37.2779C5.87433 40.2756 5.95134 40.677 6.64757 41.8685C7.46979 43.2757 8.82267 44.4657 12.8817 47.3523C17.2904 50.4876 18.8519 51.9557 19.8485 53.9023C20.1493 54.4899 20.3955 55.0459 20.3955 55.1377C20.3955 55.3778 18.8154 55.1706 16.9606 54.6871C15.2494 54.2411 13.6491 53.5238 11.2887 52.1451C10.3756 51.6118 9.60625 51.1976 9.57915 51.2249C9.51461 51.2894 11.7648 53.1083 12.8817 53.8945C14.4787 55.0183 17.2173 56.6 19.4563 57.6913L21.6701 58.7705L21.0664 58.8661C19.5188 59.111 17.9078 58.8483 16.4373 58.111C15.5262 57.6541 14.8656 57.1534 12.1603 54.868C10.915 53.8161 8.31979 51.9296 8.31979 52.0763C8.31979 52.1158 9.96664 53.7965 11.9794 55.8114C15.2602 59.0955 15.7705 59.5523 16.9104 60.2241C19.1035 61.5169 21.3654 62.4472 23.8813 63.091L25.1532 63.4165L26.3397 62.2406C27.6977 60.8946 28.6451 59.8082 28.5467 59.7096C28.5095 59.6725 28.2454 59.6092 27.9594 59.5691C27.6735 59.5291 27.3491 59.4665 27.2384 59.4302C26.9115 59.3228 27.705 58.9712 28.3616 58.9324C28.8647 58.9027 29.0822 58.7701 30.1329 57.8521C30.7917 57.2765 31.3477 56.76 31.3687 56.7044C31.3895 56.6489 30.7253 56.3421 29.8927 56.0229C21.4327 52.7786 12.5777 47.6109 9.78484 44.2877C8.33186 42.5588 7.78081 41.1752 7.18078 37.7483C6.56613 34.2379 6.06163 32.7655 4.96006 31.2676C4.56223 30.7265 4.29456 30.4889 4.29456 30.6767ZM49.5132 32.6507C48.1382 33.7968 46.8969 35.7034 46.3714 37.4768C45.9 39.0672 45.9638 40.8539 46.5517 42.5293L46.7944 43.2208L46.2164 43.5022C45.4234 43.8881 43.8944 45.3638 42.856 46.7454C42.379 47.3801 41.5392 48.797 40.9801 49.9104C40.4234 51.0191 39.7905 52.1494 39.5738 52.4222C39.3571 52.6952 39.1799 52.9516 39.1799 52.9922C39.1799 53.0328 39.5573 52.8497 40.0185 52.5855C41.7159 51.6132 43.6342 50.7725 44.7795 50.499C46.1912 50.162 47.8304 50.1942 48.5721 50.5737C49.1379 50.8632 49.9138 51.5783 49.9138 51.8102C49.9138 52.2267 50.2242 52.0577 51.1202 51.1531C52.6063 49.653 54.1042 47.5002 53.8435 47.239C53.612 47.0071 54.1815 47.2216 55.3692 47.8137C56.9775 48.6154 58.8821 49.2366 60.4111 49.4579C61.3281 49.5908 62.0043 49.5885 63.8316 49.4468C65.1405 49.3452 66.4997 49.312 67.0275 49.3685L67.9459 49.4671L67.2135 49.8904C64.651 51.3711 63.4168 52.6784 62.8116 54.5526C62.7051 54.8825 61.8445 55.8688 60.0093 57.7642L57.3605 60.4998L57.1956 61.3672C57.0851 61.9482 57.0741 62.3162 57.1621 62.4808C57.2343 62.6161 57.2934 62.8483 57.2934 62.9968C57.2934 63.8377 58.737 64.418 59.3631 63.829C59.6148 63.5922 59.7716 63.5505 60.146 63.6208C60.5937 63.7049 60.6403 63.6747 61.2186 62.9243C62.4698 61.3004 63.6781 60.3232 66.6524 58.53C69.1355 57.0328 69.8021 56.5317 71.5901 54.818C72.4058 54.0361 73.4954 53.1178 74.0114 52.7773C75.7167 51.6521 76.8829 50.0038 76.8829 48.7188C76.8829 48.0542 76.0301 46.4245 75.2501 45.5986C74.6486 44.9616 72.8275 43.6614 72.5369 43.6614C72.4835 43.6614 72.0054 43.295 71.4746 42.8472C68.4035 40.2561 65.4618 38.8243 61.2516 37.8714C59.0778 37.3794 58.1496 36.9299 56.6576 35.6471C55.1153 34.3213 53.997 33.5859 52.3064 32.786C50.318 31.8453 50.4707 31.8527 49.5132 32.6507ZM20.798 34.3093C20.798 34.4295 22.6836 35.5986 23.7158 36.1184C25.1261 36.8287 30.4557 39.1915 31.9345 39.7621C35.9452 41.3097 39.7226 42.3285 43.913 42.9926C45.8845 43.3051 46.5198 43.2765 46.3515 42.883C46.0355 42.1439 45.8666 41.1394 45.8455 39.8731L45.8215 38.4366L45.0165 38.4947C41.1057 38.7766 35.668 38.4941 31.6661 37.8012C28.0955 37.1829 26.2484 36.6189 23.202 35.2166C21.2975 34.34 20.798 34.1514 20.798 34.3093ZM0.000976562 49.851C0.000976562 49.9293 0.0661853 50.4282 0.145885 50.9597C0.797838 55.3085 2.4502 57.8772 6.10591 60.2249C6.62248 60.5566 7.76967 61.2377 8.65522 61.7383C10.814 62.9588 11.392 63.4433 12.5354 64.9911C13.6001 66.4325 14.3971 67.2783 15.2261 67.847C15.8372 68.266 16.8346 68.7919 17.0184 68.7919C17.0857 68.7919 17.1797 68.5046 17.2272 68.1536C17.3913 66.9435 17.5366 67.1322 17.634 68.6816C17.7076 69.8529 17.8077 70.3886 18.0686 71.0093C18.5653 72.1908 19.0468 73.891 19.0505 74.4769C19.0523 74.7579 19.1483 75.4043 19.2639 75.9133C19.7099 77.8769 21.9017 79.956 23.5713 79.9989C23.9914 80.0097 24.2168 79.9323 24.4769 79.6875C24.9512 79.2412 24.9228 78.7651 24.3351 77.318C23.9074 76.2644 23.8434 75.9584 23.8171 74.8394C23.8006 74.1372 23.8117 73.9103 23.8419 74.3354C23.8803 74.8747 23.9526 75.1081 24.0813 75.1081C24.3983 75.1081 24.5962 74.2021 24.5148 73.1234C24.4431 72.1738 24.4591 72.0962 24.8325 71.5799C25.0488 71.2809 25.2258 70.9951 25.2258 70.9449C25.2258 70.8947 24.9321 70.7159 24.573 70.5474C24.0351 70.295 23.8687 70.269 23.6267 70.3986C23.3799 70.531 23.2376 70.5001 22.7353 70.2053C22.4066 70.0124 22.0499 69.7201 21.9424 69.5558C21.6734 69.1447 21.7575 67.935 22.1066 67.1905C22.3661 66.6373 22.3704 66.5746 22.1694 66.2673C21.9549 65.9394 21.9524 65.939 21.7349 66.208C21.5495 66.4373 21.3342 66.4833 20.3186 66.5097C19.6598 66.5271 18.9095 66.5292 18.6512 66.5147L18.1816 66.4884L18.696 66.2994C18.9789 66.1954 19.506 66.0711 19.8675 66.0231C20.2288 65.9751 20.4911 65.8816 20.4502 65.8155C20.3205 65.605 19.026 64.6998 17.8462 63.9944C16.3312 63.0886 15.5653 62.7098 11.6194 60.9146C4.98502 57.8964 2.76457 56.2262 1.27765 53.1357C0.749267 52.0376 0.269325 50.5142 0.269325 49.9354C0.269325 49.8108 0.208947 49.7088 0.135151 49.7088C0.061355 49.7088 0.000976562 49.7728 0.000976562 49.851ZM45.419 50.6005C43.885 50.8362 42.1865 51.6049 39.1348 53.4445C37.4509 54.4597 36.5799 54.8966 35.7134 55.1607C34.2926 55.5938 33.1724 56.1379 32.2212 56.8568L31.5016 57.4005L31.8858 57.7745C32.0971 57.9801 33.2289 58.9995 34.401 60.0398L36.5321 61.931L36.9503 61.6392C37.1803 61.4786 37.6704 61.0845 38.0394 60.763C38.8854 60.026 40.0051 59.4858 41.4492 59.1179C42.7665 58.7823 43.51 58.4319 43.8048 58.0081C44.7103 56.7059 44.9258 56.2936 44.7055 56.2848C44.5814 56.2797 44.7558 56.2011 45.0931 56.1101C46.059 55.8493 46.7873 55.3481 48.3314 53.8817C49.6976 52.5844 49.7613 52.4998 49.6307 52.1547C49.2759 51.2165 48.2991 50.6764 46.807 50.5935C46.265 50.5634 45.6404 50.5665 45.419 50.6005ZM44.3763 56.375C44.3318 56.4196 44.216 56.4244 44.1193 56.3856C44.0122 56.3427 44.044 56.3109 44.2003 56.3044C44.3417 56.2987 44.4209 56.3304 44.3763 56.375ZM43.8396 56.5094C43.7951 56.554 43.6793 56.5588 43.5826 56.52C43.4755 56.4771 43.5073 56.4453 43.6636 56.4388C43.805 56.433 43.8842 56.4648 43.8396 56.5094ZM30.4281 58.3693C29.9704 58.8277 29.5019 59.4881 29.1999 60.1005C28.8481 60.8136 28.4584 61.3319 27.8071 61.9533C26.5556 63.1475 25.0842 64.4302 23.8329 65.4178C22.6943 66.3166 22.3099 66.9064 22.01 68.2148C21.8169 69.0572 21.8926 69.3448 22.4255 69.7939C22.8495 70.1512 23.3285 70.2352 23.5691 69.9943C23.668 69.8952 23.8588 69.9405 24.2055 70.1453C24.4777 70.3062 24.7168 70.4153 24.7367 70.3876C24.7566 70.3599 24.9939 70.0289 25.2641 69.6521C26.2441 68.2857 27.5631 67.2843 30.8913 65.3802C32.6813 64.356 35.3002 62.7608 36.1521 62.1758C36.2427 62.1136 36.1671 61.9658 35.9459 61.7727C35.7538 61.605 34.6486 60.6211 33.4898 59.5863C32.331 58.5515 31.3346 57.6877 31.2755 57.6666C31.2164 57.6455 30.8351 57.9617 30.4281 58.3693ZM1.34795 59.0734C1.35077 59.1337 1.65307 59.3294 2.01963 59.5081C2.91015 59.9425 3.75491 60.8019 4.73411 62.2698C6.70943 65.231 8.29926 66.9149 10.8196 68.7154C12.4157 69.8557 12.4517 69.8395 9.79571 69.1785C7.32757 68.5644 4.85648 67.2068 4.20936 66.1095C3.84252 65.4876 3.69641 65.622 4.05116 66.2549C4.80831 67.6058 6.9716 69.1543 10.8691 71.1354C14.3914 72.9257 17.3348 74.033 18.5712 74.033H18.9162L18.467 73.3275C17.7449 72.1937 17.4301 71.4957 17.2567 70.6447L17.0943 69.8471L15.2795 69.1307C14.2814 68.7367 12.775 68.0678 11.9322 67.6445C9.07532 66.2096 7.81784 65.1791 5.69051 62.5297C4.83367 61.4627 3.88237 60.3862 3.57632 60.1377C2.77906 59.4904 1.33494 58.8006 1.34795 59.0734ZM56.1413 60.6601C56.0781 60.9125 55.9207 61.0313 55.5014 61.1432C55.1956 61.2251 54.6737 61.4327 54.3416 61.6047C54.0095 61.7767 53.4822 61.9847 53.1697 62.067C52.3628 62.2792 52.2615 62.5513 52.6061 63.5806C53.0888 65.0222 53.6397 65.913 54.4224 66.5179C55.2277 67.1401 56.6505 68.7435 57.1593 69.6021C58.0095 71.0368 59.9202 72.4478 61.6304 72.9039C62.3454 73.0946 63.9466 73.1568 64.3316 73.0089C64.6537 72.885 64.9599 72.2048 64.8645 71.8245C64.8191 71.6433 64.2955 71.0551 63.7008 70.5173C62.5947 69.5169 61.945 68.6407 61.5375 67.5992C61.2086 66.7588 61.3974 66.7243 61.7502 67.5605C62.0933 68.3738 62.3297 68.393 62.3137 67.6062C62.305 67.1833 62.1555 66.8313 61.6799 66.1149L61.0573 65.1773L61.2565 64.6118C61.366 64.3008 61.4312 64.0219 61.4013 63.992C61.3714 63.962 61.0148 63.9031 60.6089 63.8611C59.9513 63.7932 59.854 63.816 59.7178 64.071C59.3553 64.7495 57.1593 64.0522 57.1593 63.2586C57.1593 63.1237 57.0345 62.8882 56.8819 62.7354C56.6844 62.5376 56.6442 62.41 56.7419 62.292C56.8174 62.2008 56.9184 61.8801 56.9665 61.5792C57.1102 60.679 56.349 59.8312 56.1413 60.6601Z" fill="url(#paint1_linear_230_68)"/>
<path fill-rule="evenodd" clip-rule="evenodd" d="M76.9384 25.5204L76.6371 26.5836C76.5958 26.7279 76.68 26.8786 76.824 26.9192L78.6313 27.4324C78.7755 27.4737 78.9261 27.3895 78.9667 27.2454L79.354 25.88C79.3998 25.7183 79.2895 25.5545 79.1226 25.5354L77.2292 25.3244C77.0979 25.3099 76.9747 25.3922 76.9384 25.5204Z" fill="#333333"/>
<path fill-rule="evenodd" clip-rule="evenodd" d="M80.2779 24.0186L85.7776 7.12248C85.8188 6.97821 85.7347 6.82752 85.5907 6.7869L83.7834 6.27367C83.6392 6.2324 83.4886 6.3166 83.448 6.46068L77.9992 23.1796C77.9612 23.3139 78.0309 23.4556 78.1612 23.5066L79.9185 24.1975C80.0663 24.2558 80.234 24.1728 80.2779 24.0186Z" fill="#333333"/>
<defs>
<linearGradient id="paint0_linear_230_68" x1="82.1572" y1="68.6885" x2="232.001" y2="68.6885" gradientUnits="userSpaceOnUse">
<stop stop-color="#2393CD"/>
<stop offset="1" stop-color="#FB3198"/>
</linearGradient>
<linearGradient id="paint1_linear_230_68" x1="41.6604" y1="79.9999" x2="41.6604" y2="0" gradientUnits="userSpaceOnUse">
<stop stop-color="#2393CD"/>
<stop offset="1" stop-color="#FB3198"/>
</linearGradient>
</defs>
</svg>
