<svg width="36" height="36" viewBox="0 0 36 36" fill="none" xmlns="http://www.w3.org/2000/svg">
<path d="M13.125 15C13.125 12.3076 15.3076 10.125 18 10.125C20.6924 10.125 22.875 12.3076 22.875 15C22.875 17.6924 20.6924 19.875 18 19.875C15.3076 19.875 13.125 17.6924 13.125 15Z" fill="#FB3198"/>
<path fill-rule="evenodd" clip-rule="evenodd" d="M5.66031 13.3161C6.17577 7.06267 11.4015 2.25 17.6761 2.25H18.324C24.5986 2.25 29.8243 7.06267 30.3398 13.3161C30.6173 16.683 29.5773 20.0262 27.4388 22.6415L20.2492 31.4342C19.0867 32.8558 16.9133 32.8558 15.7509 31.4342L8.56129 22.6415C6.4228 20.0262 5.38279 16.683 5.66031 13.3161ZM18 7.875C14.065 7.875 10.875 11.065 10.875 15C10.875 18.935 14.065 22.125 18 22.125C21.935 22.125 25.125 18.935 25.125 15C25.125 11.065 21.935 7.875 18 7.875Z" fill="#FB3198"/>
</svg>
