<svg width="70" height="70" viewBox="0 0 70 70" fill="none" xmlns="http://www.w3.org/2000/svg">
<rect width="70" height="70" rx="8.4" fill="#FB3198"/>
<g clip-path="url(#clip0_399_154)">
<path d="M46.928 36.4084C41.9168 36.4084 37.8535 40.473 37.8535 45.483C37.8535 50.4916 41.9168 54.5538 46.928 54.5538C51.9367 54.5538 56 50.4917 56 45.483C56 40.473 51.9367 36.4084 46.928 36.4084ZM47.5102 52.1893V51.4059C47.5102 51.0819 47.2489 50.82 46.928 50.82C46.6039 50.82 46.3432 51.0826 46.3432 51.4059V52.1893C43.0943 51.91 40.499 49.3141 40.2197 46.0658H41.0055C41.3265 46.0658 41.589 45.8044 41.589 45.4835C41.589 45.157 41.3265 44.8988 41.0055 44.8988H40.2197C40.499 41.6492 43.0949 39.0558 46.3432 38.7752V39.5598C46.3432 39.8826 46.6046 40.1446 46.928 40.1446C47.249 40.1446 47.5102 39.882 47.5102 39.5598V38.7752C50.7604 39.0558 53.3557 41.6492 53.6338 44.8988H52.8479C52.5252 44.8988 52.2645 45.1576 52.2645 45.4835C52.2645 45.8051 52.5258 46.0658 52.8479 46.0658H53.6338C53.3563 49.314 50.7604 51.9093 47.5102 52.1893Z" fill="white"/>
<path d="M50.3085 44.6056H48.2036C47.923 44.2009 47.4569 43.9321 46.9279 43.9321C46.9199 43.9321 46.9112 43.9346 46.9019 43.9346L44.9839 41.2344C44.7046 40.8414 44.157 40.7502 43.7628 41.0283C43.3699 41.3089 43.2755 41.8576 43.5568 42.2518L45.4761 44.9532C45.4171 45.1189 45.3793 45.2952 45.3793 45.4833C45.3793 46.3387 46.0714 47.0308 46.9279 47.0308C47.4569 47.0308 47.9254 46.7645 48.2036 46.3585H50.3085C50.7914 46.3585 51.1844 45.9682 51.1844 45.4839C51.1844 44.9973 50.7915 44.6056 50.3085 44.6056Z" fill="white"/>
<path d="M22.7322 27.4232C24.3201 27.4232 25.605 26.1371 25.605 24.5511V18.3189C25.605 16.7323 24.3201 15.4468 22.7322 15.4468C21.1456 15.4468 19.8613 16.7323 19.8613 18.3189V24.5517C19.8613 26.1371 21.1456 27.4232 22.7322 27.4232Z" fill="white"/>
<path d="M40.3239 27.4232C41.9119 27.4232 43.1967 26.1371 43.1967 24.5511V18.3189C43.1967 16.7323 41.9118 15.4468 40.3239 15.4468C38.7386 15.4468 37.4531 16.7323 37.4531 18.3189V24.5517C37.4524 26.1371 38.7387 27.4232 40.3239 27.4232Z" fill="white"/>
<path d="M26.6245 35.3977C26.6245 34.5778 25.9615 33.9136 25.1397 33.9136H22.3874C21.5674 33.9136 20.9014 34.5778 20.9014 35.3977V38.1489C20.9014 38.97 21.5674 39.6361 22.3874 39.6361H25.1397C25.9609 39.6361 26.6245 38.97 26.6245 38.1489V35.3977Z" fill="white"/>
<path d="M34.391 35.3998C34.391 34.5798 33.7262 33.9163 32.9081 33.9163H30.1545C29.3345 33.9163 28.6709 34.5798 28.6709 35.3998V38.1515C28.6709 38.9703 29.3345 39.6364 30.1545 39.6364H32.9081C33.7268 39.6364 34.391 38.9703 34.391 38.1515V35.3998Z" fill="white"/>
<path d="M37.9197 33.9136C37.0984 33.9136 36.4336 34.5778 36.4336 35.3977V38.1488C36.4336 38.8918 36.9873 39.4778 37.6974 39.5889C38.7861 37.8931 40.3281 36.52 42.1537 35.6323V35.3977C42.1537 34.5778 41.4901 33.9136 40.6689 33.9136H37.9197Z" fill="white"/>
<path d="M22.3884 41.3711C21.5684 41.3711 20.9023 42.0347 20.9023 42.8546V45.6069C20.9023 46.4269 21.5684 47.0904 22.3884 47.0904H25.142C25.962 47.0904 26.6249 46.4269 26.6249 45.6069V42.8546C26.6249 42.0347 25.962 41.3711 25.142 41.3711H22.3884Z" fill="white"/>
<path d="M32.9055 41.3726H30.1544C29.3345 41.3726 28.6709 42.0374 28.6709 42.8574V45.6072C28.6709 46.4272 29.3345 47.0907 30.1544 47.0907H32.9055C33.7242 47.0907 34.3891 46.4272 34.3891 45.6072V42.8574C34.3891 42.0374 33.7242 41.3726 32.9055 41.3726Z" fill="white"/>
<path d="M36.9174 49.9328H22.9541C20.5506 49.9328 18.5947 47.9769 18.5947 45.5759V30.9918H44.4643V34.808C45.2571 34.6255 46.0783 34.5187 46.928 34.5187C47.6568 34.5187 48.3681 34.5939 49.0577 34.7311V21.0142H44.92V24.5511C44.92 27.0849 42.8597 29.1458 40.324 29.1458C37.7896 29.1458 35.7294 27.0849 35.7294 24.5511V21.0142H27.3283V24.5511C27.3283 27.0849 25.2668 29.1458 22.7324 29.1458C20.1992 29.1458 18.1378 27.0849 18.1378 24.5511V21.0142H14V45.5753C14 50.5188 18.0087 54.5294 22.9541 54.5294H40.1031C40.3067 54.5294 40.5078 54.5127 40.7077 54.4996C39.0602 53.3611 37.7442 51.7813 36.9174 49.9328Z" fill="white"/>
</g>
<defs>
<clipPath id="clip0_399_154">
<rect width="42" height="42" fill="white" transform="translate(14 14)"/>
</clipPath>
</defs>
</svg>
