<svg width="35" height="35" viewBox="0 0 35 35" fill="none" xmlns="http://www.w3.org/2000/svg">
<rect width="35" height="35" rx="5" fill="#ECECEC"/>
<path d="M24.7184 12.3411L19.5624 17.4971L24.7184 22.6531C24.9919 22.9265 25.1455 23.2975 25.1455 23.6843C25.1455 24.071 24.9919 24.442 24.7184 24.7155C24.4449 24.9889 24.074 25.1426 23.6872 25.1426C23.3004 25.1426 22.9295 24.9889 22.656 24.7155L17.5 19.5595L12.344 24.7155C12.0705 24.9889 11.6996 25.1426 11.3128 25.1426C10.926 25.1426 10.5551 24.9889 10.2816 24.7155C10.0081 24.442 9.85448 24.071 9.85448 23.6843C9.85448 23.2975 10.0081 22.9265 10.2816 22.6531L15.4376 17.4971L10.2816 12.3411C10.0081 12.0676 9.85448 11.6967 9.85448 11.3099C9.85448 10.9231 10.0081 10.5522 10.2816 10.2787C10.5551 10.0052 10.926 9.85155 11.3128 9.85155C11.6996 9.85155 12.0705 10.0052 12.344 10.2787L17.5 15.4347L22.656 10.2787C22.9295 10.0052 23.3004 9.85155 23.6872 9.85155C24.074 9.85155 24.4449 10.0052 24.7184 10.2787C24.9919 10.5522 25.1455 10.9231 25.1455 11.3099C25.1455 11.6967 24.9919 12.0676 24.7184 12.3411Z" fill="#333333"/>
</svg>
