<svg width="35" height="35" viewBox="0 0 35 35" fill="none" xmlns="http://www.w3.org/2000/svg">
<rect width="35" height="35" rx="5" fill="#ECECEC"/>
<path d="M26.25 18.9552H18.9583V26.2469C18.9583 26.6337 18.8046 27.0046 18.5312 27.2781C18.2577 27.5516 17.8867 27.7052 17.5 27.7052C17.1132 27.7052 16.7423 27.5516 16.4688 27.2781C16.1953 27.0046 16.0416 26.6337 16.0416 26.2469V18.9552H8.74996C8.36319 18.9552 7.99225 18.8016 7.71876 18.5281C7.44527 18.2546 7.29163 17.8837 7.29163 17.4969C7.29163 17.1101 7.44527 16.7392 7.71876 16.4657C7.99225 16.1922 8.36319 16.0386 8.74996 16.0386H16.0416V8.74691C16.0416 8.36013 16.1953 7.9892 16.4688 7.71571C16.7423 7.44222 17.1132 7.28857 17.5 7.28857C17.8867 7.28857 18.2577 7.44222 18.5312 7.71571C18.8046 7.9892 18.9583 8.36013 18.9583 8.74691V16.0386H26.25C26.6367 16.0386 27.0077 16.1922 27.2812 16.4657C27.5546 16.7392 27.7083 17.1101 27.7083 17.4969C27.7083 17.8837 27.5546 18.2546 27.2812 18.5281C27.0077 18.8016 26.6367 18.9552 26.25 18.9552Z" fill="#333333"/>
</svg>
