<svg width="70" height="70" viewBox="0 0 70 70" fill="none" xmlns="http://www.w3.org/2000/svg">
<rect width="70" height="70" rx="8.4" fill="#FB3198"/>
<g clip-path="url(#clip0_399_202)">
<path fill-rule="evenodd" clip-rule="evenodd" d="M23.1543 40.7407C23.4797 40.7407 23.7918 40.87 24.022 41.1001C24.2521 41.3302 24.3813 41.6423 24.3813 41.9678C24.3813 42.2932 24.2521 42.6053 24.022 42.8354C23.7918 43.0655 23.4797 43.1948 23.1543 43.1948H20.8506L17.8154 51.938H53.0991L49.8042 43.1948H47.9004C47.575 43.1948 47.2629 43.0655 47.0327 42.8354C46.8026 42.6053 46.6733 42.2932 46.6733 41.9678C46.6733 41.6423 46.8026 41.3302 47.0327 41.1001C47.2629 40.87 47.575 40.7407 47.9004 40.7407H51.5576L56.5 54.3853H14.5L19.0527 40.7407H23.1543Z" fill="white"/>
<path fill-rule="evenodd" clip-rule="evenodd" d="M41.523 43.5877C39.9955 45.2678 38.237 46.7224 36.3004 47.908C36.1802 47.9973 36.0356 48.0478 35.8859 48.0527C35.7363 48.0576 35.5887 48.0167 35.463 47.9354C32.6983 46.1887 30.2437 43.994 28.1998 41.4412C25.5543 38.136 23.8863 34.4549 23.3189 30.9104C22.7515 27.366 23.2813 23.8592 25.0689 21.0462C25.796 19.9037 26.7099 18.8915 27.7725 18.052C30.295 16.0423 33.1763 14.9793 36.0338 14.9998C38.9641 15.0421 41.7709 16.1868 43.8951 18.2059C44.7119 18.9524 45.4175 19.8122 45.9903 20.7591C47.9146 23.9275 48.3282 27.9676 47.484 32.0623C46.5476 36.3617 44.4884 40.3362 41.5162 43.5809L41.523 43.5877ZM35.5006 21.3914C36.7214 21.3914 37.9149 21.7534 38.93 22.4317C39.9451 23.11 40.7363 24.0741 41.2035 25.202C41.6707 26.3299 41.793 27.5711 41.5548 28.7685C41.3166 29.9659 40.7287 31.0658 39.8654 31.9291C39.0021 32.7924 37.9022 33.3803 36.7048 33.6185C35.5074 33.8567 34.2663 33.7344 33.1383 33.2672C32.0104 32.8 31.0463 32.0088 30.368 30.9937C29.6897 29.9786 29.3277 28.7851 29.3277 27.5643C29.3277 25.9271 29.9781 24.357 31.1357 23.1994C32.2933 22.0418 33.8634 21.3914 35.5006 21.3914Z" fill="white"/>
</g>
<defs>
<clipPath id="clip0_399_202">
<rect width="42" height="39.3853" fill="white" transform="translate(14.5 15)"/>
</clipPath>
</defs>
</svg>
