<svg width="36" height="36" viewBox="0 0 36 36" fill="none" xmlns="http://www.w3.org/2000/svg">
<path d="M18.3148 18.6361C18.1313 18.7849 17.8687 18.7849 17.6852 18.6361L4.11502 7.63845C3.74905 7.34186 3.95878 6.75 4.42983 6.75H31.5702C32.0412 6.75 32.2509 7.34186 31.885 7.63845L18.3148 18.6361ZM18.3148 21.8536C18.1313 22.0024 17.8687 22.0024 17.6852 21.8536L3.81481 10.6128C3.48795 10.3479 3 10.5806 3 11.0013V28.75C3 29.0261 3.22386 29.25 3.5 29.25H32.5C32.7761 29.25 33 29.0261 33 28.75V11.0013C33 10.5806 32.5121 10.3479 32.1852 10.6128L18.3148 21.8536Z" fill="#FB3198"/>
</svg>
