<svg width="70" height="70" viewBox="0 0 70 70" fill="none" xmlns="http://www.w3.org/2000/svg">
<rect width="70" height="70" rx="8.4" fill="#FB3198"/>
<g clip-path="url(#clip0_399_210)">
<path d="M49.7622 37.586C52.429 37.586 54.5914 35.4251 54.5914 32.7582C54.5914 30.0914 52.429 27.929 49.7622 27.929C47.096 27.929 44.9336 30.0914 44.9336 32.7582C44.9337 35.4251 47.096 37.586 49.7622 37.586Z" fill="white"/>
<path d="M55.9448 42.2391C55.7296 40.9461 54.6608 39.1365 53.8518 38.3281C53.7453 38.221 53.269 38.1962 53.1404 38.2759C52.1568 38.8808 51.0015 39.2369 49.7615 39.2369C48.5229 39.2369 47.3675 38.8808 46.3839 38.2759C46.2547 38.1962 45.7791 38.221 45.6725 38.3281C45.4463 38.5543 45.1996 38.8553 44.959 39.2045C45.6099 40.43 46.1261 41.7318 46.3124 42.8529C46.4986 43.9767 46.4382 45.0406 46.137 46.0106C47.2066 46.3975 48.4891 46.5673 49.7614 46.5673C53.08 46.5673 56.4761 45.4167 55.9448 42.2391Z" fill="white"/>
<path d="M34.8767 35.5488C39.1987 35.5488 42.7027 32.0447 42.7027 27.7228C42.7027 23.4022 39.1987 19.8982 34.8767 19.8982C30.5555 19.8982 27.0527 23.4022 27.0527 27.7228C27.0527 32.0447 30.5554 35.5488 34.8767 35.5488Z" fill="white"/>
<path d="M41.5033 36.7474C41.3335 36.5783 40.5623 36.5351 40.3526 36.6649C38.7573 37.6464 36.8851 38.2211 34.8766 38.2211C32.8697 38.2211 30.9966 37.6464 29.402 36.6649C29.1924 36.535 28.4213 36.5783 28.2515 36.7474C26.9372 38.0602 25.2052 40.9951 24.8567 43.0874C23.9975 48.2411 29.5024 50.1017 34.8766 50.1017C40.2523 50.1017 45.7572 48.2411 44.898 43.0874C44.5495 40.9951 42.8174 38.0602 41.5033 36.7474Z" fill="white"/>
<path d="M20.2375 37.586C22.9036 37.586 25.066 35.4251 25.066 32.7582C25.066 30.0914 22.9036 27.929 20.2375 27.929C17.5705 27.929 15.4082 30.0914 15.4082 32.7582C15.4082 35.4251 17.5705 37.586 20.2375 37.586Z" fill="white"/>
<path d="M23.4413 42.8529C23.6394 41.6755 24.1981 40.2892 24.8985 39.0072C24.7033 38.7406 24.5082 38.5083 24.328 38.3281C24.2215 38.221 23.7458 38.1962 23.6166 38.2759C22.633 38.8808 21.4776 39.2369 20.2384 39.2369C18.9991 39.2369 17.843 38.8808 16.8601 38.2759C16.7315 38.1962 16.2546 38.221 16.148 38.3281C15.337 39.1364 14.271 40.9461 14.0551 42.2391C13.5245 45.4167 16.9199 46.5672 20.2384 46.5672C21.4227 46.5672 22.6187 46.4215 23.6394 46.0882C23.3177 45.0985 23.2496 44.0097 23.4413 42.8529Z" fill="white"/>
</g>
<defs>
<clipPath id="clip0_399_210">
<rect width="42" height="42" fill="white" transform="translate(14 14)"/>
</clipPath>
</defs>
</svg>
