<svg width="36" height="36" viewBox="0 0 36 36" fill="none" xmlns="http://www.w3.org/2000/svg">
<path d="M7.49958 14.7912C10.3742 21.052 15.4892 26.0298 21.8485 28.7283L22.8679 29.1825C25.2001 30.2216 27.9417 29.4321 29.3642 27.3119L30.6964 25.3263C31.1295 24.6807 30.9976 23.8113 30.3926 23.3231L25.8748 19.6785C25.2112 19.1431 24.2355 19.2678 23.7278 19.9528L22.3302 21.8387C18.744 20.0697 15.8324 17.1581 14.0634 13.5719L15.9493 12.1743C16.6343 11.6667 16.759 10.6909 16.2237 10.0273L12.5788 5.50941C12.0908 4.90449 11.2216 4.77254 10.576 5.20539L8.57676 6.54594C6.44325 7.9765 5.65818 10.7408 6.72128 13.0792L7.49841 14.7886L7.49958 14.7912Z" fill="#FB3198"/>
</svg>
